<svg width="190" height="38" viewBox="0 0 190 38" fill="none" xmlns="http://www.w3.org/2000/svg">
<path d="M162.165 7.51128H170.766C177.543 7.51128 180.931 13.1451 180.931 18.7267C180.931 24.3606 177.543 29.9421 170.766 29.9421H162.165V27.3339H165.814V10.1195H162.165V7.51128ZM157.213 36.9844H171.027C183.381 36.9844 189.533 27.8556 189.533 18.7267C189.533 9.59785 183.381 0.469006 171.027 0.469006H157.213V36.9844ZM143.139 7.51128H150.958V0.469006H143.139V7.51128ZM143.139 10.1195H150.958V36.9844H143.139V10.1195ZM110.611 36.9844V28.0121H113.217L121.037 36.9844H128.804V34.3762L118.952 23.3173L128.543 12.7277V10.1195H121.089L113.217 19.0918V22.6912H110.611V0.469006H102.792V36.9844H110.611ZM88.9775 36.9844H96.7969V20.7089C96.7969 13.9797 91.8967 9.59786 86.4233 9.59786C84.1295 9.59786 81.7316 10.3804 79.5944 12.0496V15.0752H76.9879V10.1195H70.2112V36.9844H78.0305V22.1175C78.0305 18.3616 80.8976 16.3792 83.7125 16.3792C86.371 16.3792 88.9775 18.1529 88.9775 21.8566V36.9844ZM49.4645 16.275C52.9572 16.275 55.8763 19.0918 55.8763 23.5259C55.8763 27.9598 52.9572 30.7768 49.4645 30.7768C45.9719 30.7768 42.8442 27.9598 42.8442 23.5259C42.8442 19.0918 45.9719 16.275 49.4645 16.275ZM34.7643 23.5259C34.7643 32.1852 40.9676 37.5061 47.1188 37.5061C49.5688 37.5061 52.0189 36.6714 54.0519 34.7935V32.0287H56.6583V36.9844H63.9563V10.1195H56.6583V15.0752H54.0519V12.3105C52.0189 10.4325 49.5688 9.59786 47.1188 9.59786C40.9676 9.59786 34.7643 14.9187 34.7643 23.5259ZM8.23122 6.98963H17.7186C20.6379 6.98963 22.1496 9.07621 22.1496 11.1628C22.1496 13.2494 20.6379 15.336 17.7186 15.336H10.8378V22.1175H18.3963C21.3155 22.1175 22.8273 24.204 22.8273 26.2906C22.8273 28.3772 21.3155 30.4638 18.3963 30.4638H8.23122V6.98963ZM27.8317 19.77H23.5571V17.1618H27.3104C29.4476 15.3882 30.5424 12.8321 30.5424 10.2239C30.5424 5.37257 26.737 0.469006 18.8134 0.469006H0.151367V36.9844H19.5432C27.5189 36.9844 31.3765 31.9243 31.3765 26.9688C31.3765 24.204 30.1775 21.5436 27.8317 19.77Z" fill="white"/>
</svg>
