<svg width="65" height="64" viewBox="0 0 65 64" fill="none" xmlns="http://www.w3.org/2000/svg">
<rect x="0.75" width="64" height="64" rx="2" fill="#2D5FAF"/>
<path d="M36.1427 14.1202C36.7345 14.1202 36.9035 14.4583 36.9881 14.7119V14.7965V14.881C36.9881 15.0501 36.9881 15.3037 36.9035 15.3883L36.819 15.5573V15.6419L36.9035 15.7264L37.1572 16.1491L37.3262 16.4027C37.6644 16.9945 38.0871 17.7554 38.0871 18.5162C38.0871 19.7843 38.3407 21.3061 39.5243 22.5742H39.4397H39.3552H39.2707L39.1016 22.4896C38.7634 22.4051 38.4253 22.1515 38.0026 21.8133C37.918 21.8133 37.918 21.9824 37.918 22.236V22.4896V22.7432V23.0814C37.918 23.1659 37.918 23.335 37.918 23.4196V23.7577C37.918 23.8423 37.918 23.8423 37.918 23.9268V24.265C38.0026 24.7722 38.0871 25.1949 38.2562 25.4485C38.4253 25.6176 38.0871 25.5331 37.7489 25.1949L37.5799 25.0258L37.3262 24.7722C37.2417 24.6031 37.1572 24.5186 37.0726 24.6031H36.9881L36.9035 24.6877L36.819 24.8568L36.7345 25.0258L36.6499 25.1949C36.4809 25.8712 36.3118 26.8857 36.9035 27.9002C36.9881 28.0693 36.9035 28.0693 36.7345 27.9847L36.6499 27.9002L36.4808 27.8157C36.2272 27.6466 35.8045 27.3084 35.6355 26.9703C35.6355 26.8857 35.5509 26.9703 35.4664 27.1393L35.3818 27.3084L35.2973 27.4775V27.7311C35.1282 28.492 35.1282 29.7601 35.72 30.8591C35.8045 31.0282 35.6355 30.9436 35.4664 30.8591L35.2973 30.7746L35.1282 30.69L35.2973 30.6055C35.2973 30.6055 35.2128 30.6055 35.2128 30.5209L35.1282 30.4364C35.0437 30.3519 35.0437 30.3519 34.9591 30.2673V30.1828C34.7901 29.9292 34.5364 30.5209 34.9591 31.4509L35.4664 32.3808L35.6355 32.719L35.8045 33.0571C36.0582 33.4798 36.2272 33.818 36.3963 33.9871C36.5654 34.1562 36.9035 34.4098 37.3262 34.5789L38.0026 34.917C38.0871 35.0016 38.1716 35.0016 38.2562 35.0861H38.3407L38.848 35.4243L39.1016 35.5933C39.7779 36.016 40.7924 36.5233 41.7223 36.5233C43.1595 36.5233 43.9203 35.5088 43.9203 35.0016H43.8358L43.3286 34.917H43.1595L42.9904 34.8325L42.7368 34.7479L42.4832 34.6634H42.3986L42.145 34.5789C40.8769 34.0716 39.2707 32.9726 39.2707 30.2673C39.2707 28.1538 40.6233 26.6321 41.7223 25.7022L41.9759 25.5331L42.2295 25.364L42.3986 25.1949L42.6522 25.0258L42.9059 24.8568L43.6667 25.6176L43.4131 25.7867L43.0749 26.0403L42.8213 26.2094L42.7368 26.2939L42.4832 26.5476C41.5532 27.393 40.3697 28.7456 40.3697 30.2673C40.3697 32.8035 42.6522 33.9871 44.0049 33.9871V33.9025V33.818V33.7335V33.6489V33.5644C44.0049 33.5644 44.0049 33.5644 44.0049 33.4798V33.3953V33.2262C44.0049 33.1417 44.0049 33.1417 44.0049 33.0571L43.9203 32.8881C43.6667 32.2963 43.0749 31.62 41.5532 30.9436H41.7223H41.8914H42.0605C42.5677 30.9436 43.4131 31.0282 44.0049 31.8736C44.2585 32.2117 44.343 31.9581 44.4276 31.8736C44.5121 31.789 44.9348 31.2818 45.6111 31.5354L45.442 31.62C45.442 31.62 45.442 31.62 45.442 31.7045L45.3575 31.789C45.1039 32.1272 44.7657 32.8881 45.1039 33.9025H45.273H45.3575L45.5266 33.818H45.6111L45.7802 33.7335C46.5411 33.3108 47.7246 32.4654 47.7246 30.6055C47.7246 28.9147 46.5411 27.6466 45.3575 26.5476L45.0194 26.2094L44.343 25.6176C44.2585 25.5331 44.2585 25.5331 44.174 25.4485L43.9203 25.1949C43.7513 25.1104 43.6667 24.9413 43.5822 24.8568L43.4976 24.7722C43.3286 24.6031 43.1595 24.3495 42.9904 24.1804L42.2295 23.4196C41.3841 22.5742 40.6233 21.6442 40.4542 20.2916L40.3697 20.1225H40.2851C40.0315 19.9534 39.3552 19.6153 39.3552 18.5162C39.3552 17.8399 39.7779 17.1636 40.2006 16.6564L40.3697 16.4027L40.5388 16.2337L40.6233 16.1491L40.7924 15.98L40.9615 15.8955L41.046 15.811H41.1305C41.1305 15.811 41.1305 15.811 41.1305 15.8955L41.046 16.3182L40.9615 16.4873C40.8769 16.8254 40.8769 17.2481 41.2151 17.2481C41.7223 17.2481 42.8213 15.98 42.8213 15.7264C42.8213 15.6419 42.9059 15.7264 42.9059 15.811V15.8955V16.0646V16.2337L42.8213 16.4027C42.7368 16.6564 42.6522 16.91 42.4832 17.0791L42.3986 17.1636C42.3141 17.3327 42.145 17.4172 42.0605 17.5863L41.5532 18.1781C41.2996 18.5162 41.046 18.7699 41.2996 19.0235C41.5532 19.3616 42.145 18.9389 42.4832 18.6008L42.5677 18.4317L42.6522 18.3472V18.2626C42.6522 18.1781 42.7368 18.1781 42.6522 18.2626V18.3472V18.5162L42.5677 18.6853V18.7699L42.4832 18.9389C42.3141 19.3616 41.9759 19.8689 41.4687 20.1225V20.207V20.2916V20.3761V20.4607V20.5452V20.6297V20.7143L41.5532 20.7988L41.6378 20.9679L41.7223 21.137C41.7223 21.137 41.7223 21.2215 41.8068 21.2215L41.8914 21.3906L42.0605 21.5597L42.2295 21.7288L42.3141 21.8133L42.4832 22.0669L42.7368 22.3205L42.9904 22.5742C42.8213 22.6587 42.9059 22.6587 42.9059 22.7432L43.1595 22.9969L43.4976 23.335L43.8358 23.6732L44.2585 24.0113L44.6812 24.3495L45.0194 24.6877L45.5266 25.1104L45.9493 25.4485L46.372 25.7867L46.7947 26.2094L46.8792 26.2939H46.9638C47.0483 26.2094 47.1328 26.1249 47.1328 25.8712V25.7867C47.1328 25.2795 47.3019 24.7722 47.5555 24.6031V24.9413V25.1949V25.6176V25.9558C47.5555 26.6321 47.6401 27.393 47.8937 27.562C48.1473 27.6466 48.2319 27.393 48.2319 27.0548C48.3164 26.7166 48.57 26.3785 48.6546 26.463L48.57 26.7166L48.4855 27.0548V27.3084V27.562C48.4009 28.2384 48.4009 28.9147 48.8236 29.1683C48.9082 29.1683 48.9082 29.1683 48.9927 29.0838L49.0773 28.9992C49.1618 28.8301 49.4154 28.7456 49.8381 28.9147L49.7536 28.5765L49.669 28.6611C49.3309 28.8301 48.8236 29.4219 48.9082 30.2673C48.9927 31.4509 47.8937 34.4943 45.1039 34.917V35.0016V35.0861L45.0194 35.2552L44.9348 35.3397L44.8503 35.5088L44.7657 35.6779C44.343 36.4387 43.4976 37.5378 41.3841 37.2841L41.5532 37.4532L41.7223 37.6223L41.9759 37.8759L42.145 38.1295L42.3141 38.3832C42.3141 38.4677 42.3986 38.4677 42.3986 38.5522L42.5677 38.8059C43.3286 39.9049 44.0894 41.5112 44.0049 43.2865L43.9203 43.1174L43.8358 42.7793L43.6667 42.3566L43.4976 41.9339L43.3286 41.6802C43.3286 41.5957 43.244 41.5957 43.244 41.5112L43.0749 41.2575L42.9059 40.9194L42.7368 40.5812L42.4832 40.2431L42.2295 39.9049C42.0605 39.5667 41.8068 39.3131 41.5532 38.9749L41.2151 38.6368C40.3697 37.6223 39.3552 36.6924 38.1716 36.016L37.918 35.847C37.8335 35.847 37.7489 35.9315 37.8335 36.2697C37.918 36.6924 37.5799 37.6223 37.3262 38.045C37.3262 38.1295 37.2417 38.1295 37.2417 38.2986V38.4677V38.5522V38.7213V38.9749V39.0595V39.3131V39.5667C37.4108 41.0039 38.1716 42.9483 40.5388 43.6247C40.9615 43.7092 41.2996 43.7092 41.6378 43.7092H41.8068H41.9759L42.145 43.6247V43.7092L42.0605 43.7937L41.9759 43.8783L42.0605 43.7092C41.7223 43.9628 41.1305 44.301 39.947 44.301C39.4397 44.301 39.4397 45.0618 40.2006 45.0618C40.2006 45.0618 40.2006 45.0618 40.2006 45.1464V45.3155V45.4845V45.5691L40.1161 45.8227L39.947 46.3299L39.8624 46.6681L39.7779 47.0063L39.6934 47.3444L39.5243 47.6826L39.3552 48.0207L39.1861 48.3589C39.1861 48.4434 39.1016 48.4434 39.1016 48.528L38.9325 48.8661C38.5943 49.627 38.1716 50.3033 37.7489 50.726C37.4953 50.8951 37.6644 50.9796 37.7489 51.0642H37.8335H37.918C38.0026 51.0642 38.0871 51.1487 38.2562 51.2333L38.4253 51.3178C38.4253 51.3178 38.5098 51.3178 38.5098 51.4023L38.6789 51.4869C38.7634 51.5714 38.848 51.5714 38.9325 51.656H38.848C38.6789 51.656 38.5098 51.656 38.5098 51.7405V52.2477C38.4253 52.5014 38.3407 52.8395 37.8335 52.8395C37.1572 52.8395 36.9881 52.1632 36.9881 51.825C36.9881 51.4869 36.6499 51.4869 36.4808 51.4869C36.3963 51.4869 35.8891 51.656 35.72 52.2477L35.6355 52.5014C35.5509 53.0931 35.2973 53.6004 34.7901 53.6004C34.1983 53.6004 34.0292 53.1777 34.0292 52.8395C34.0292 52.755 34.0292 52.755 33.9447 52.755H33.8601C33.7756 52.755 33.6065 52.755 33.4374 52.6704L33.691 52.5014L33.8601 52.4168L34.1137 52.2477L34.3674 52.0787C34.7901 51.7405 35.1282 51.4023 35.0437 51.2333C34.8746 50.8106 34.621 50.8951 34.4519 51.0642L34.3674 51.1487L34.1983 51.2333C33.9447 51.4023 33.522 51.656 33.1838 51.7405C32.6766 51.8251 32.4229 51.1487 32.6766 50.6415L32.7611 50.5569C32.8456 50.4724 32.7611 50.4724 32.6766 50.3879L32.5075 50.3033C32.4229 50.2188 32.3384 50.2188 32.2539 50.1342H32.592H32.9302H33.1838C33.8601 50.1342 34.621 50.1342 34.621 49.7961C34.5364 49.2888 34.1137 49.2888 33.8601 49.3734C33.6065 49.4579 32.8456 49.3734 32.8456 48.8661C32.8456 48.7816 32.9302 48.6971 32.9302 48.6125L33.0147 48.4434C33.0993 48.3589 33.0993 48.2744 33.0993 48.1898C33.0993 48.1053 33.0147 48.0207 32.9302 47.9362L32.8456 47.8517H32.9302C32.9302 47.8517 32.9302 47.8517 33.0147 47.8517H33.1838C33.3529 47.8517 33.6065 47.8517 33.8601 47.9362C34.0292 48.0207 34.1983 48.1053 34.3674 48.3589L34.7055 48.6971C35.0437 49.0352 35.4664 49.4579 35.8045 49.4579C36.4809 49.4579 37.0726 48.4434 37.0726 46.4145V45.6536V45.3155V45.0618V44.8082V44.6391C36.9881 44.301 36.9881 44.1319 36.819 44.0474L36.7345 43.9628L36.5654 43.8783L36.4808 43.7937C36.4808 43.7937 36.3963 43.7092 36.3963 43.6247V43.4556C36.3963 43.371 36.3963 43.202 36.2272 43.1174C35.9736 43.0329 35.6355 43.371 35.5509 44.7237V45.0618C35.5509 45.1464 35.5509 45.1464 35.5509 45.2309V45.6536V46.0763L35.4664 46.3299L35.3818 46.1609L35.2973 45.9918V45.9072L35.2128 45.6536L35.1282 45.4C35.0437 45.0618 34.9591 44.7237 34.9591 44.301C34.9591 44.2164 34.9591 44.1319 34.9591 44.0474V43.6247C34.9591 43.4556 34.9591 43.371 34.8746 43.2865C34.8746 43.2865 34.7901 43.2865 34.7055 43.371L34.621 43.4556L34.3674 43.7092C34.1137 43.9628 33.7756 44.301 33.3529 44.4701L33.4374 44.301L33.522 44.1319L33.6065 43.9628C33.7756 43.6247 33.9447 43.1174 33.9447 42.6947C33.9447 42.6102 33.9447 42.5256 33.8601 42.4411V42.3566L33.9447 42.1029L33.7756 41.9339L33.691 41.8493C33.4374 41.5112 33.0993 40.8348 33.0993 39.0595C33.0993 38.4677 33.1838 38.045 33.2683 37.7068L33.3529 37.4532C33.4374 37.1151 33.522 36.7769 33.522 36.2697C33.522 35.6779 32.8456 35.0016 32.0848 34.3252L31.7466 34.0716L31.4085 33.818L31.2394 33.6489L30.1404 32.8881L29.8022 32.6344L29.4641 32.3808C29.3795 32.2963 29.3795 32.2963 29.295 32.2117L28.8723 31.8736L28.6187 31.62L28.365 31.3663L28.1114 31.1127L27.9423 30.9436L27.8578 30.8591C27.8578 30.8591 27.8578 30.8591 27.8578 30.7746C27.7733 30.69 27.9423 30.5209 28.0269 30.3519L28.5341 29.7601L28.7032 29.5065C28.9568 29.1683 29.1259 28.8301 28.8723 28.6611C28.5341 28.4074 28.365 28.5765 28.1114 28.9147L28.0269 29.0838L27.8578 29.4219C27.8578 29.5065 27.7733 29.5065 27.7733 29.591C27.4351 30.0982 26.8433 30.6055 26.5897 30.7746C26.5052 30.7746 26.5052 30.69 26.5052 30.5209V29.8446V29.591C26.5052 29.1683 26.4206 28.7456 26.167 28.7456C25.5752 28.7456 25.4907 29.3374 25.5752 29.591V29.6755C25.5752 29.7601 25.5752 29.7601 25.4062 29.7601H25.2371C24.9835 29.7601 24.7298 29.8446 24.4762 30.0982L24.3917 30.2673C24.3917 30.2673 24.3917 30.3519 24.3071 30.3519L24.2226 30.5209C24.0535 30.8591 23.7999 31.2818 23.7154 31.9581V31.8736V31.789C23.6308 31.5354 23.5463 30.9436 23.7154 30.4364L23.7999 30.2673C23.7999 30.1828 23.7999 30.1828 23.6308 30.1828H23.4617H23.3772H23.2081H22.9545H22.6164L22.2782 30.2673L21.94 30.3519L21.3483 30.4364L20.5029 30.6055C20.4183 30.6055 20.3338 30.6055 20.2492 30.69C19.9956 30.7746 19.9111 30.8591 19.9111 31.2818V31.62V31.9581V32.2963C19.9111 32.6344 19.9111 32.8035 19.9111 33.0571C19.9111 33.1417 19.8265 33.0571 19.8265 32.9726V32.8881V32.8035V32.719C19.8265 32.719 19.8265 32.719 19.742 32.719H19.6575H19.4884C19.1502 32.8035 18.643 32.8035 18.643 32.2963C18.643 31.8736 18.7275 31.789 18.8966 31.7045L18.9811 31.62C19.0657 31.5354 19.1502 31.5354 19.1502 31.3663C19.1502 30.8591 18.8121 30.6055 18.3894 30.6055C18.1357 30.6055 17.9667 30.7746 17.7976 30.9436L17.6285 31.1127C17.3749 31.3663 17.1213 31.62 16.7831 31.62C16.0223 31.62 15.9377 31.1127 15.9377 30.8591C15.9377 30.6055 16.0223 30.5209 16.0223 30.3519C16.0223 30.1828 15.8532 30.0137 15.6841 30.0137C15.5996 30.0137 15.7686 29.9292 16.0223 29.9292H16.1068L16.614 30.0137C17.2058 30.0982 17.9667 30.0137 17.9667 29.5065C17.9667 29.3374 17.7976 29.2528 17.6285 29.3374H17.3749C17.2904 29.3374 17.2904 29.3374 17.2058 29.3374L16.8677 29.2528C16.445 29.1683 15.8532 28.9992 15.8532 28.3229C15.8532 27.9847 16.1913 27.8157 16.3604 27.7311H16.445C16.445 27.6466 16.5295 27.4775 16.5295 27.3084C16.5295 27.2239 16.5295 27.2239 16.6986 27.3084V27.1393L16.8677 27.2239L17.1213 27.393L17.4594 27.7311L17.7131 27.9847L17.7976 28.0693L17.8821 28.1538C18.0512 28.4074 18.3048 28.3229 18.3894 28.2384H18.4739C18.5584 28.1538 18.7275 27.9002 18.3048 27.6466C17.7976 27.393 17.7976 27.1393 17.7976 26.7166C17.7976 26.3785 18.0512 26.2939 18.2203 26.2094H18.3048C18.3894 26.2094 18.4739 25.8712 18.3894 25.7022V25.6176C18.3048 25.364 18.9811 25.9558 19.3193 26.6321C19.3193 26.7166 19.4038 26.8012 19.4038 26.8857V27.3084C19.4038 27.7311 19.4884 28.0693 19.9956 28.3229H20.1647H20.2492H20.3338C20.3338 28.3229 20.3338 28.3229 20.4183 28.3229H20.5029H20.5874L20.7565 28.2384L21.0101 28.1538C21.0101 28.1538 21.0946 28.1538 21.1792 28.0693L21.3483 27.9847L21.8555 27.8157L23.3772 27.2239L25.7443 26.3785C25.9134 26.2939 26.2516 26.1249 26.0825 25.8712C25.9134 25.5331 25.3216 25.4485 24.4762 26.0403L24.3917 26.1249C24.2226 26.2939 24.1381 26.2094 24.2226 26.0403L24.3071 25.9558L24.3917 25.7867C24.3917 25.7867 24.3917 25.7022 24.4762 25.7022L24.5608 25.5331C24.5608 25.5331 24.5608 25.4485 24.6453 25.4485L24.8144 25.2795C24.8989 25.1949 24.8989 25.1104 24.9835 25.1104L25.1525 24.9413C25.7443 24.1804 26.6743 23.4196 27.5196 23.4196C27.8578 23.4196 27.9423 23.2505 27.9423 23.0814V22.9969C27.9423 22.8278 27.7733 22.6587 27.1815 22.6587C26.4206 22.6587 25.4062 23.4196 24.9835 24.1804C24.9835 24.1804 24.8989 24.1804 24.8144 24.1804L24.5608 24.0113C24.3917 23.8423 24.0535 23.7577 23.6308 23.7577C23.1236 23.7577 22.7854 23.8423 22.5318 23.8423L22.3627 23.9268H22.1937H22.1091C21.94 23.9268 22.5318 23.0814 23.5463 23.0814C23.7154 23.0814 23.7154 22.8278 23.3772 22.5742L23.2927 22.4896C23.1236 22.4051 22.87 22.0669 22.6164 21.8133L22.3627 21.4751L21.8555 20.7988C21.771 20.7143 21.771 20.7143 21.6864 20.6297C21.5173 20.4607 21.3483 20.7143 21.0946 21.137L21.0101 21.3061L20.9256 21.5597L20.841 21.8133L20.7565 22.0669C20.7565 22.1515 20.6719 22.0669 20.6719 21.9824V21.8978V21.8133V21.7288C20.6719 21.6442 20.5874 21.6442 20.5874 21.6442L20.4183 21.5597C20.1647 21.4751 19.9111 21.3061 19.9111 20.7988C19.9111 20.207 20.2492 20.1225 20.5874 20.207H20.6719L20.841 20.2916C20.841 20.2916 20.841 20.2916 20.9256 20.2916C21.2637 20.3761 21.6019 19.9534 21.5173 19.6153C20.9256 19.2771 20.5874 18.8544 20.0802 18.8544H19.9956C19.4038 18.9389 18.5584 18.5162 18.5584 17.8399C18.5584 17.5018 18.7275 17.3327 18.8966 17.2481L19.0657 17.1636H19.1502C19.2348 17.0791 19.2348 16.7409 19.2348 16.6564C19.2348 16.6564 19.2348 16.6564 19.3193 16.6564L19.4038 16.7409L19.5729 16.8254L19.742 16.9945L19.9111 17.1636L19.9956 17.2481L20.1647 17.4172C20.2492 17.5018 20.2492 17.5018 20.3338 17.5863L20.5874 17.8399C20.841 18.0935 20.9256 18.1781 21.0946 18.0935C21.2637 18.009 21.3483 17.5863 20.7565 17.0791C20.1647 16.5718 20.2492 15.98 20.5029 15.6419C20.5029 15.6419 20.5874 15.6419 20.6719 15.6419H20.9256C21.1792 15.6419 21.4328 15.6419 21.5173 15.4728C21.5173 15.3037 21.6019 15.3883 21.6019 15.4728V15.5573V15.7264L21.6864 15.8955V16.2337V16.5718L21.771 16.7409V16.8254V16.9945C21.771 17.5018 21.94 17.5863 22.1091 17.5863C22.2782 17.5863 22.4473 17.5018 22.3627 16.7409C22.2782 16.0646 22.4473 15.8955 22.6164 15.811L22.7009 15.7264C22.87 15.6419 23.1236 15.6419 23.2927 15.811C23.4617 15.98 23.7999 15.7264 23.7999 15.4728V15.5573V15.6419V15.811C23.8844 16.0646 23.8844 16.4027 23.6308 16.7409C23.5463 16.8254 23.5463 16.91 23.4617 16.91L23.1236 17.2481C22.7854 17.5863 22.5318 18.009 22.87 18.6853L22.9545 18.8544L26.3361 22.3205C26.4206 22.3205 26.5052 22.236 26.3361 22.0669C26.167 21.8133 26.167 21.5597 26.3361 21.3906V21.3061L26.4206 21.3906L26.5897 21.4751L26.7588 21.5597C26.7588 21.5597 26.8433 21.5597 26.8433 21.6442L27.0124 21.7288C27.6042 21.9824 28.4496 22.236 29.7177 22.0669C32.0002 21.8133 32.9302 20.207 32.592 19.8689L32.7611 19.9534L32.592 20.1225L32.5075 20.207L32.3384 20.3761C31.9157 20.6297 31.4085 20.9679 30.9012 20.9679C29.9713 20.9679 29.4641 20.038 29.6331 19.4462V19.3616L29.7177 19.4462L29.8022 19.5307C29.9713 19.6998 30.394 19.9534 30.9012 19.9534C31.6621 19.9534 32.5075 19.0235 32.3384 18.5162C32.3384 18.4317 32.2539 18.4317 32.0848 18.5162L31.9157 18.4317L31.0703 18.6853L30.7322 18.7699C30.6476 18.7699 30.6476 18.7699 30.5631 18.8544L30.2249 18.9389C29.6331 19.108 28.7877 19.1926 27.9423 19.1926C25.2371 19.1926 24.8144 16.4873 26.7588 15.3883L26.6743 15.4728L26.5897 15.6419V15.7264V15.8955V16.0646V16.2337V16.4027C26.4206 17.3327 26.6743 18.5162 28.8723 18.5162C29.295 18.5162 29.7177 18.5162 30.0558 18.4317L30.394 18.3472C30.4785 18.3472 30.6476 18.3472 30.7322 18.2626L31.0703 18.1781L31.3239 18.0935L31.5776 18.009L31.7466 17.9245L31.9157 17.8399L32.1693 17.7554V17.6708V17.5863C32.0848 17.3327 31.7466 16.7409 30.9858 16.7409C30.2249 16.7409 29.8868 17.3327 29.7177 17.5863L29.6331 17.6708V17.7554L29.5486 17.6708L29.3795 17.8399C29.1259 17.6708 28.7032 17.1636 28.8723 16.5718C28.8723 16.4873 28.9568 16.4873 29.0414 16.4873H29.2104H29.3795C29.6331 16.4027 29.8868 16.3182 29.8868 15.98C29.8868 15.811 29.8022 15.7264 29.7177 15.7264H29.6331C29.5486 15.7264 29.4641 15.811 29.3795 15.8955L29.295 16.0646C29.2104 16.1491 29.2104 16.2337 29.0414 16.2337C28.7032 16.2337 28.7032 15.2192 29.3795 15.2192H29.4641C29.6331 15.2192 29.8868 15.2192 29.9713 15.0501V14.9656C29.9713 14.7119 30.5631 14.4583 31.8312 14.3738H32.2539C32.4229 14.3738 32.6766 14.3738 32.9302 14.3738C33.8601 14.3738 34.4519 14.5429 34.7901 14.6274L34.9591 14.7119L35.0437 14.7965L35.1282 14.881L35.2128 14.9656V14.881C35.2973 14.5429 35.5509 14.1202 36.1427 14.1202ZM27.1815 33.5644H28.2805H29.0414H29.5486H29.8868H30.1404H30.3095H30.394H30.4785C30.5631 33.5644 30.5631 33.6489 30.5631 33.7335V33.818C30.5631 33.9025 30.5631 34.0716 30.8167 34.1562C31.1549 34.2407 32.1693 35.0861 32.1693 35.5088C32.1693 35.5933 32.0848 35.7624 32.0002 35.847L31.7466 36.1851C31.6621 36.3542 31.5775 36.5233 31.7466 36.8614C32.1693 37.4532 32.5075 37.4532 32.7611 37.4532H32.6766C32.6766 37.4532 32.6766 37.4532 32.592 37.4532L32.5075 37.5378C32.2539 37.6223 31.7466 37.7068 30.9858 37.7068H30.8167C30.4785 37.7068 30.1404 37.6223 29.8022 37.5378L28.8723 37.3687C28.365 37.2841 27.9423 37.1996 27.4351 37.2841H27.3506H27.1815C26.2516 37.4532 25.6598 38.2986 26.0825 41.0039V41.2575C26.0825 41.3421 26.2516 41.4266 26.5897 41.4266C27.097 41.4266 28.365 42.0184 29.1259 43.2865L28.7877 43.1174V42.9483L28.5341 42.8638L28.2805 42.7793C27.6042 42.4411 26.9279 42.1875 26.6743 42.6102C26.5052 42.9483 26.5897 43.202 26.8433 43.371C26.9279 43.371 26.7588 43.4556 26.5052 43.5401L26.2516 43.6247L25.8289 43.7937H25.4062L24.5608 44.0474L23.039 44.4701C22.7854 44.5546 22.7009 44.7237 23.2081 45.0618L23.2927 45.1464L23.5463 45.3155L23.7999 45.4845L23.8844 45.5691C23.969 45.6536 24.0535 45.7382 23.969 45.7382H23.7154C23.4617 45.7382 23.2081 45.7382 23.2081 45.9072C23.2081 46.0763 23.1236 46.499 22.7009 46.499C22.2782 46.499 22.0246 46.2454 22.0246 45.9072V45.6536V45.4845C22.0246 45.1464 21.8555 44.8928 21.5173 44.8928C21.0101 44.8928 20.6719 45.4 20.6719 46.3299C20.6719 47.0063 19.9956 47.1753 19.742 47.1753C19.4884 47.1753 19.2348 47.0908 19.2348 46.6681C19.2348 46.5836 19.0657 46.5836 18.8966 46.5836H18.7275C18.643 46.5836 18.7275 46.499 18.8966 46.3299L19.0657 46.2454L19.3193 46.0763L19.5729 45.9072L20.0802 45.4845C20.2492 45.4 20.2492 45.0618 20.1647 44.9773L20.0802 44.8928C19.9111 44.8082 19.742 44.7237 19.4038 44.9773C19.0657 45.3155 18.643 45.5691 18.3048 45.5691C17.9667 45.5691 17.6285 45.2309 17.6285 44.8928V44.8082V44.4701C17.6285 44.301 17.6285 44.0474 17.3749 43.9628L17.2904 43.8783C17.2058 43.7937 17.2058 43.7937 17.3749 43.7937H17.544H18.1357H18.8121H19.0657H19.3193C19.6575 43.7937 19.9956 43.7092 19.9956 43.6247C19.9956 43.202 19.5729 43.1174 19.4038 43.1174H19.1502C18.7275 43.1174 18.1357 43.1174 18.1357 42.5256C18.1357 42.3566 18.2203 42.272 18.3048 42.1875H18.3894C18.3894 42.1029 18.4739 42.1029 18.4739 42.0184C18.4739 41.8493 18.2203 41.8493 18.1357 41.8493L18.2203 41.7648L18.3048 41.6802C18.5584 41.5957 19.0657 41.4266 19.5729 41.8493C19.6575 41.9339 19.8265 42.1029 19.9111 42.1875L20.0802 42.4411L20.2492 42.6947C20.5029 43.0329 20.7565 43.2865 21.1792 43.2865H21.3483C22.1937 43.202 24.2226 42.4411 24.2226 40.1585C24.2226 39.4822 24.0535 38.8904 23.8844 38.3832L23.7999 38.1295L23.7154 37.8759L23.4617 37.3687C23.4617 37.2841 23.4617 37.2841 23.4617 37.2841C23.4617 37.1996 23.4617 37.1996 23.5463 37.1996H23.7154C23.8844 37.1996 24.1381 37.1151 24.1381 36.7769C24.1381 36.1006 20.0802 36.016 18.8121 37.2841V37.1996V37.1151V37.0305V36.946L18.8966 36.7769C19.1502 36.3542 19.742 35.7624 21.0946 35.7624C21.4328 35.7624 21.6864 35.847 21.8555 35.847L22.1091 35.9315C22.3627 36.016 22.5318 36.016 22.7854 35.9315C22.87 35.9315 22.87 35.847 22.7854 35.7624L22.4473 35.3397C22.1937 35.0861 21.94 34.8325 22.0246 34.3252L22.1091 34.4098C22.3627 34.6634 22.9545 35.1706 23.6308 35.1706C23.7154 35.1706 23.7154 35.1706 23.7999 35.0861L23.8844 35.0016L24.0535 34.7479L24.2226 34.5789L24.3917 34.4098C24.8989 34.0716 25.7443 33.5644 27.1815 33.5644ZM31.3239 28.492C31.1549 28.492 30.9858 28.5765 30.9858 28.7456V28.8301V28.9147V28.9992C30.9858 28.9992 30.9858 29.0838 30.9012 29.0838L30.8167 29.2528L30.7322 29.4219C30.4785 29.7601 30.1404 30.1828 29.3795 30.5209C29.295 30.6055 29.2104 30.7746 29.295 30.9436C29.3795 31.0282 29.4641 31.1127 29.6331 31.1127H29.7177C30.8167 30.6055 31.3239 29.9292 31.493 29.4219L31.5776 29.2528V29.1683V29.0838V28.9147V28.8301C31.5776 28.6611 31.493 28.492 31.3239 28.492ZM33.691 28.3229C33.522 28.3229 33.4374 28.4074 33.3529 28.5765V28.7456V28.8301V28.9147C33.2683 29.3374 33.0147 30.0982 32.0848 30.6055C32.0002 30.69 31.9157 30.8591 32.0002 31.0282C32.0848 31.1127 32.1693 31.1973 32.3384 31.1973H32.4229C33.4374 30.69 33.8601 29.8446 34.0292 29.2528V29.0838V28.9992V28.8301V28.7456V28.6611C33.9447 28.4074 33.8601 28.3229 33.691 28.3229ZM29.8868 24.4341C29.8022 24.6031 29.8868 24.7722 29.9713 24.9413L30.0558 25.0258C30.1404 25.1104 30.394 25.364 30.4785 25.7022C30.6476 26.2939 30.4785 27.1393 29.9713 27.9847C29.8868 28.0693 29.8868 28.3229 30.0558 28.4074C30.1404 28.492 30.1404 28.492 30.2249 28.492C30.3095 28.492 30.4785 28.4074 30.5631 28.3229C31.1549 27.3084 31.4085 26.3785 31.2394 25.6176V25.4485C31.1549 24.9413 30.8167 24.6877 30.6476 24.5186L30.5631 24.4341L30.3095 24.3495C30.1404 24.265 29.8868 24.265 29.8868 24.4341ZM28.2805 24.6877L28.1114 24.7722L28.0269 24.8568L27.9423 24.9413L27.7733 25.1104C27.3506 25.5331 26.9279 26.2939 26.7588 27.562C26.7588 27.7311 26.8433 27.9002 27.0124 27.9002H27.0969H27.1815C27.266 27.9002 27.4351 27.8157 27.5196 27.6466V27.562C27.6042 26.3785 28.1114 25.7022 28.4496 25.364L28.5341 25.2795L28.6187 25.1949C28.7877 25.1104 28.7877 24.8568 28.7032 24.7722C28.6187 24.6877 28.4496 24.6877 28.2805 24.6877ZM32.2539 22.4896C32.1693 22.6587 32.1693 22.8278 32.3384 22.9123L32.4229 22.9969L32.5075 23.0814L32.592 23.1659C32.592 23.1659 32.592 23.1659 32.592 23.2505L32.6766 23.335C32.9302 23.7577 33.1838 24.4341 32.9302 25.7022L32.8456 25.9558C32.7611 26.1249 32.8456 26.2094 33.0147 26.2939H33.0993H33.1838C33.2683 26.2939 33.4374 26.2094 33.522 26.0403C33.9447 24.1804 33.3529 23.1659 33.0147 22.7432L32.9302 22.6587L32.8456 22.5742L32.7611 22.4051L32.6766 22.3205C32.5075 22.3205 32.3384 22.3205 32.2539 22.4896ZM45.6957 15.5573L45.8647 15.8955L45.9493 16.0646C46.2029 16.5718 46.7101 17.1636 47.2174 17.0791C47.3865 17.0791 47.3865 16.8254 47.3019 16.5718L47.2174 16.2337L47.1328 16.0646V15.8955C47.1328 15.811 47.1328 15.811 47.1328 15.7264L47.3019 15.8955L47.471 16.0646L47.6401 16.2337C47.8937 16.4873 48.1473 16.7409 48.4009 16.91C48.9082 17.2481 48.9927 18.2626 48.7391 18.8544C48.4855 19.2771 48.0628 19.6998 47.9782 20.1225V20.207C47.8937 20.4607 47.7246 20.7988 47.471 21.3061L47.3019 21.6442C47.1328 21.8978 47.0483 22.0669 46.7947 22.3205L46.4565 22.6587C46.2029 22.9969 45.8647 23.335 45.5266 23.6732L45.3575 23.8423L44.5121 23.0814L44.7657 22.8278L45.0194 22.5742L45.273 22.3205L45.3575 22.236L45.6111 21.9824L45.8647 21.7288C46.4565 21.0524 46.9638 20.3761 46.8792 19.8689H46.7947L46.7101 19.7843C46.7101 19.7843 46.7101 19.7843 46.6256 19.7843L46.4565 19.6998C46.1184 19.4462 45.6111 18.9389 45.6957 18.1781L45.7802 18.3472C45.7802 18.3472 45.7802 18.3472 45.8647 18.4317L45.9493 18.6008C46.2029 18.9389 46.6256 19.2771 46.8792 19.0235C47.3019 18.7699 46.9638 18.0935 46.4565 17.5863L46.2874 17.4172V17.1636L46.2029 17.0791C45.8647 16.7409 45.6957 16.2337 45.6957 15.8955V15.7264V15.5573ZM33.691 18.3472C33.6065 18.5162 33.691 18.6853 33.8601 18.7699C34.7901 19.108 35.6355 19.6153 35.72 19.8689H35.6355C35.6355 19.8689 35.6355 19.8689 35.5509 19.8689H35.4664H35.3818H35.2128H35.1282H34.8746H34.4519C34.3674 19.8689 34.1983 19.9534 34.1137 20.038C34.0292 20.1225 34.1137 20.207 34.1137 20.3761L34.1983 20.5452L34.2828 20.6297V20.7143C34.2828 20.7143 34.2828 20.7143 34.2828 20.7988V20.9679V21.0524V21.2215V21.3061V21.5597C34.2828 21.8978 34.2828 22.3205 34.1983 22.7432C34.1983 22.9123 34.2828 22.9969 34.5364 23.0814H34.621H34.7055C34.7901 23.0814 34.9591 22.9123 34.9591 22.7432C34.9591 22.5742 34.9591 22.4051 34.9591 22.3205V21.8978C34.9591 21.8133 34.9591 21.8133 34.9591 21.7288V21.3906C34.9591 20.9679 34.8746 20.7143 34.7901 20.4607C35.2973 20.4607 35.72 20.3761 35.9736 20.1225C36.0582 20.038 36.1427 19.8689 36.1427 19.6998C36.1427 19.108 35.2973 18.6008 34.621 18.2626L34.3674 18.1781L34.1137 18.0935L33.9447 18.009H33.8601C33.9447 18.0935 33.7756 18.1781 33.691 18.3472ZM32.9302 15.0501H31.4085C31.1549 15.0501 31.1549 15.1346 31.0703 15.2192C31.0703 15.3883 31.1549 15.4728 31.1549 15.5573L31.2394 15.6419H32.0848H32.1693C32.2539 15.6419 32.4229 15.6419 32.4229 15.7264C32.4229 15.811 32.1693 15.8955 31.9157 15.98H31.7466H31.493L31.5776 16.0646C31.6621 16.2337 31.8312 16.3182 32.1693 16.3182C32.6766 16.3182 32.8456 15.8955 32.8456 15.5573V15.4728V15.3883C32.9302 15.3883 33.1838 15.3883 33.1838 15.2192C33.2683 15.1346 33.0993 15.0501 32.9302 15.0501ZM32.592 10.4004L32.8456 10.4849L33.0147 10.654L33.0993 10.7386L33.3529 10.8231C33.691 11.0767 34.0292 11.4149 34.0292 11.753C34.0292 12.1757 33.6065 12.3448 33.3529 12.4294H33.2683C33.4374 12.8521 33.7756 13.0211 33.9447 13.1057H34.0292H34.7055C35.2128 13.1057 35.2128 12.683 35.2128 12.5139V12.3448H35.1282C34.9591 12.3448 34.621 12.1757 34.621 11.8376C34.621 11.4149 35.2128 11.0767 35.8045 10.9076L35.9736 10.8231L36.1427 10.7386L36.3963 10.654L36.2272 11.3303H36.1427C35.9736 11.3303 35.8045 11.4994 35.8045 11.753C35.8045 11.8376 35.8891 11.9221 35.9736 12.0067H36.0582L35.5509 13.6975H29.9713L29.5486 12.0912C29.6331 12.0067 29.8022 11.9221 29.8022 11.753C29.8022 11.4994 29.6331 11.3303 29.4641 11.3303H29.3795L29.1259 10.5695C29.6331 10.654 30.9012 11.1613 30.9012 11.753C30.9012 12.1757 30.5631 12.3448 30.394 12.3448H30.3095C30.3095 12.8521 30.6476 13.0211 30.8167 13.0211H30.9012H30.9858H31.7466C32.1693 13.0211 32.2539 12.5139 32.2539 12.3448V12.2603H32.1693H32.0002C31.7466 12.1757 31.493 12.0912 31.493 11.8376C31.493 11.4149 31.8312 11.0767 32.1693 10.7386L32.3384 10.5695L32.5075 10.4004H32.592ZM32.7611 11.4149C32.5075 11.4149 32.3384 11.584 32.3384 11.8376C32.3384 12.0912 32.5075 12.2603 32.7611 12.2603C33.0147 12.2603 33.1838 12.0912 33.1838 11.8376C33.1838 11.584 33.0147 11.4149 32.7611 11.4149Z" fill="#FAB413"/>
</svg>
