<svg xmlns="http://www.w3.org/2000/svg" viewBox="0 0 52 52" xmlns:v="https://vecta.io/nano"><path d="M30 4.9c.7 0 .9.4 1 .7v.1.1c0 .2 0 .5-.1.6l-.1.2v.1h0 0l.1.1h0l.3.5h0l.2.3c.4.7.9 1.6.9 2.5 0 1.5.3 3.3 1.7 4.8h-.1 0-.1-.1l-.2-.1c-.4-.1-.8-.4-1.3-.8-.1 0-.1.2-.1.5v.3h0v.3h0v.4.4.4.2.4c.1.6.2 1.1.4 1.4.2.2-.2.1-.6-.3l-.2-.2h0l-.3-.3c-.1-.2-.2-.3-.3-.2H31h0l-.1.1h0l-.1.2h0l-.1.2h0l-.1.2c-.2.8-.4 2 .3 3.2.1.2 0 .2-.2.1l-.1-.1h0l-.2-.1c-.3-.2-.8-.6-1-1 0-.1-.1 0-.2.2l-.1.2h0l-.1.2h0v.3c-.2.9-.2 2.4.5 3.7.1.2-.1.1-.3 0l-.2-.1h0l-.2-.1h0l.2-.1s-.1 0-.1-.1l-.1-.1-.2-.2v-.1c-.2-.3-.5.4 0 1.5l.6 1.1h0l.2.4h0l.2.4c.3.5.5.9.7 1.1s.6.5 1.1.7l.8.4c.1.1.2.1.3.2h.1 0l.6.4h0l.3.2c.8.5 2 1.1 3.1 1.1 1.7 0 2.6-1.2 2.6-1.8h-.1 0l-.6-.1h0-.2 0l-.2-.1h0l-.3-.1h0l-.3-.1h-.1l-.3-.1c-1.5-.6-3.4-1.9-3.4-5.1 0-2.5 1.6-4.3 2.9-5.4l.3-.2h0l.3-.2h0l.2-.2h0l.3-.2h0l.3-.2.9.9-.3.2h0l-.4.3h0l-.3.2-.1.1-.3.3c-1.1 1-2.5 2.6-2.5 4.4 0 3 2.7 4.4 4.3 4.4v-.1h0v-.1h0v-.1h0V28h0v-.1-.1-.1h0v-.2-.2l-.1-.2c-.3-.7-1-1.5-2.8-2.3h.2 0 .2 0 .2c.6 0 1.6.1 2.3 1.1.3.4.4.1.5 0s.6-.7 1.4-.4h0 0l-.2.1v.1l-.1.1c-.3.4-.7 1.3-.3 2.5h.2 0 .1 0l.2-.1h.1l.2-.1c.9-.5 2.3-1.5 2.3-3.7 0-2-1.4-3.5-2.8-4.8l-.4-.4h0l-.8-.7-.2-.2-.3-.3c-.2-.1-.3-.3-.4-.4l-.1-.1c-.2-.2-.4-.5-.6-.7l-.9-.9c-1-1-1.9-2.1-2.1-3.7L35 12h0-.1c-.3-.2-1.1-.6-1.1-1.9 0-.8.5-1.6 1-2.2l.2-.3h0l.2-.2.1-.1.2-.2h0l.2-.1h0l.1-.1h0 .1 0V7l-.1.5h0l-.1.2c-.1.4-.1.9.3.9.6 0 1.9-1.5 1.9-1.8 0-.1.1 0 .1.1V7h0v.2h0v.2h0l-.1.2c-.1.3-.2.6-.4.8l-.1.1c-.1.2-.3.3-.4.5l-.6.7c-.3.4-.6.7-.3 1 .3.4 1-.1 1.4-.5l.1-.2.1-.1v-.1c0-.1.1-.1 0 0v.1h0v.2h0l-.1.2v.1l-.1.2c-.2.5-.6 1.1-1.2 1.4h0 0v.1h0v.1h0v.1h0v.1h0v.1h0v.1h0v.1h0l.1.1h0l.1.2h0l.1.2s0 .1.1.1l.1.2h0l.2.2h0l.2.2.1.1.2.3h0l.3.3h0l.3.3c-.2.1-.1.1-.1.2l.3.3h0l.4.4h0l.4.4h0l.5.4h0l.5.4h0l.4.4h0l.6.5h0l.5.4h0l.5.4h0l.5.5h0l.1.1h0 0 .1c.1-.1.2-.2.2-.5v-.1c0-.6.2-1.2.5-1.4v.4h0v.3h0v.5h0v.4c0 .8.1 1.7.4 1.9.3.1.4-.2.4-.6.1-.4.4-.8.5-.7l-.1.3h0l-.1.4h0v.3h0v.3c-.1.8-.1 1.6.4 1.9.1 0 .1 0 .2-.1l.1-.1c.1-.2.4-.3.9-.1l-.1-.4h0l-.1.1c-.4.2-1 .9-.9 1.9.1 1.4-1.2 5-4.5 5.5v.1h0v.1h0l-.1.2h0l-.1.1h0l-.1.2h0l-.1.2c-.5.9-1.5 2.2-4 1.9l.2.2h0l.2.2h0l.3.3h0l.2.3h0l.2.3c0 .1.1.1.1.2l.2.3c.9 1.3 1.8 3.2 1.7 5.3l-.1-.2h0l-.1-.4h0l-.2-.5h0l-.2-.5h0l-.2-.3c0-.1-.1-.1-.1-.2l-.2-.3h0l-.2-.4h0l-.2-.4h0l-.3-.4h0l-.3-.4c-.2-.4-.5-.7-.8-1.1l-.4-.4c-1-1.2-2.2-2.3-3.6-3.1l-.3-.2h0 0c-.1 0-.2.1-.1.5.1.5-.3 1.6-.6 2.1 0 .1-.1.1-.1.3v.2.1.2h0v.3.1.3h0v.3c.2 1.7 1.1 4 3.9 4.8.5.1.9.1 1.3.1h.2 0 .2 0l.2-.1h0v.1h0l-.1.1h0l-.1.1h0l.1-.2c-.4.3-1.1.7-2.5.7-.6 0-.6.9.3.9v.1.2h0v.2.1l-.1.3h0l-.2.6h0l-.1.4h0l-.1.4h0l-.1.4h0l-.2.4h0l-.2.4h0l-.2.4c0 .1-.1.1-.1.2l-.2.4c-.4.9-.9 1.7-1.4 2.2-.3.2-.1.3 0 .4h.1 0 .1c.1 0 .2.1.4.2l.2.1s.1 0 .1.1l.2.1c.1.1.2.1.3.2h-.1c-.2 0-.4 0-.4.1h0 0v.6c-.1.3-.2.7-.8.7-.8 0-1-.8-1-1.2s-.4-.4-.6-.4c-.1 0-.7.2-.9.9l-.1.3c-.1.7-.4 1.3-1 1.3-.7 0-.9-.5-.9-.9 0-.1 0-.1-.1-.1h-.1c-.1 0-.3 0-.5-.1l.3-.2h0l.2-.1h0l.3-.2h0l.3-.2c.5-.4.9-.8.8-1-.2-.5-.5-.4-.7-.2h0 0l-.1.1h0l-.2.1c-.3.2-.8.5-1.2.6-.6.1-.9-.7-.6-1.3l.1-.1c.1-.1 0-.1-.1-.2l-.2-.1c-.1-.1-.2-.1-.3-.2h.4 0 .4 0 .3c.8 0 1.7 0 1.7-.4-.1-.6-.6-.6-.9-.5s-1.2 0-1.2-.6c0-.1.1-.2.1-.3l.1-.2c.1-.1.1-.2.1-.3s-.1-.2-.2-.3l-.1-.1h.1.1.2c.2 0 .5 0 .8.1.2.1.4.2.6.5l.4.4c.4.4.9.9 1.3.9.8 0 1.5-1.2 1.5-3.6v-.9h0v-.4h0v-.3h0v-.3h0V41c-.1-.4-.1-.6-.3-.7l-.1-.1h0l-.2-.1h0l-.1-.1h0s-.1-.1-.1-.2v-.2c0-.1 0-.3-.2-.4-.3-.1-.7.3-.8 1.9v.4.2.5h0v.5h0l-.1.3h0l-.1-.2h0l-.1-.2v-.1l-.1-.3h0l-.1-.3c-.1-.4-.2-.8-.2-1.3v-.3-.5c0-.2 0-.3-.1-.4 0 0-.1 0-.2.1l-.1.1h0l-.3.3c-.3.3-.7.7-1.2.9l.1-.2h0l.1-.2h0l.1-.2c.2-.4.4-1 .4-1.5 0-.1 0-.2-.1-.3v-.1l.1-.3h0l-.2-.2h0l-.1-.1c-.3-.4-.7-1.2-.7-3.3 0-.7.1-1.2.2-1.6l.1-.3c.1-.4.2-.8.2-1.4 0-.7-.8-1.5-1.7-2.3l-.4-.3h0l-.4-.3h0l-.2-.2h0l-1.3-.9h0l-.4-.3h0l-.4-.3-.2-.2-.5-.4h0l-.3-.3h0l-.3-.3h0l-.3-.3h0l-.2-.2h0l-.1-.1v-.1c-.1-.1.1-.3.2-.5l.6-.7h0l.2-.3c.3-.4.5-.8.2-1-.4-.3-.6-.1-.9.3l-.1.2h0l-.2.4c0 .1-.1.1-.1.2-.4.6-1.1 1.2-1.4 1.4-.1 0-.1-.1-.1-.3v-.8h0v-.3c0-.5-.1-1-.4-1-.7 0-.8.7-.7 1v.1c0 .1 0 .1-.2.1h-.2c-.3 0-.6.1-.9.4l-.1.2s0 .1-.1.1l-.1.2c-.2.4-.5.9-.6 1.7v-.1h0v-.1a2.85 2.85 0 0 1 0-1.6l.1-.2c0-.1 0-.1-.2-.1H15h-.1-.2 0-.3 0-.4 0l-.4.1h0l-.4.1h0l-.7.1h0l-1 .2c-.1 0-.2 0-.3.1-.3.1-.4.2-.4.7v.4h0v.4h0v.4.9c0 .1-.1 0-.1-.1v-.1h0V27h0v-.1h0-.1-.1 0-.2c-.4.1-1 .1-1-.5 0-.5.1-.6.3-.7l.1-.1c.1-.1.2-.1.2-.3 0-.6-.4-.9-.9-.9-.3 0-.5.2-.7.4l-.2.2c-.3.3-.6.6-1 .6-.9 0-1-.6-1-.9s.1-.4.1-.6-.2-.4-.4-.4c-.1 0 .1-.1.4-.1h.1 0l.6.1c.7.1 1.6 0 1.6-.6 0-.2-.2-.3-.4-.2h-.3-.2l-.4-.1c-.5-.1-1.2-.3-1.2-1.1 0-.4.4-.6.6-.7h.1 0 0c0-.1.1-.3.1-.5 0-.1 0-.1.2 0v-.2h0l.2.1h0l.3.2h0l.4.4h0l.3.3h0l.1.1.1.1c.2.3.5.2.6.1h.1c.1-.1.3-.4-.2-.7-.6-.3-.6-.6-.6-1.1 0-.4.3-.5.5-.6h.1c.1 0 .2-.4.1-.6v-.1c-.1-.3.7.4 1.1 1.2 0 .1.1.2.1.3v.5c0 .5.1.9.7 1.2h.2 0 .1 0 .1.1.1.1l.2-.1h0l.3-.1s.1 0 .2-.1l.2-.1h0l.6-.2h0l1.8-.7h0l2.8-1c.2-.1.6-.3.4-.6-.2-.4-.9-.5-1.9.2l-.1.1c-.2.2-.3.1-.2-.1l.1-.1h0l.1-.2s0-.1.1-.1l.1-.2s0-.1.1-.1l.2-.2c.1-.1.1-.2.2-.2l.2-.2c.7-.9 1.8-1.8 2.8-1.8.4 0 .5-.2.5-.4v-.1c0-.2-.2-.4-.9-.4-.9 0-2.1.9-2.6 1.8h-.2l-.3-.2c-.2-.2-.6-.3-1.1-.3-.6 0-1 .1-1.3.1l-.2.1h0-.2-.1c-.2 0 .5-1 1.7-1 .2 0 .2-.3-.2-.6l-.1-.1c-.2-.1-.5-.5-.8-.8l-.3-.4h0l-.6-.8-.2-.2c-.2-.2-.4.1-.7.6l-.1.2h0l-.1.3h0l-.1.3h0l-.1.3c0 .1-.1 0-.1-.1v-.1h0V14v-.1c0-.1-.1-.1-.1-.1l-.2-.1c-.3-.1-.6-.3-.6-.9 0-.7.4-.8.8-.7h.1 0l.2.1h.1c.4.1.8-.4.7-.8-.7-.4-1.1-.9-1.7-.9h-.1c-.7.1-1.7-.4-1.7-1.2 0-.4.2-.6.4-.7l.2-.1h.1c.1-.1.1-.5.1-.6h.1l.1.1h0l.2.1h0l.2.2h0l.2.2.1.1.2.2.2.2.3.3c.3.3.4.4.6.3s.3-.6-.4-1.2-.6-1.3-.3-1.7h.2.3c.3 0 .6 0 .7-.2 0-.2.1-.1.1 0v.1h0v.2h0l.1.2h0v.4h0v.4h0l.1.2v.1.2c0 .6.2.7.4.7s.4-.1.3-1c-.1-.8.1-1 .3-1.1l.1-.1h0c.2-.1.5-.1.7.1s.6-.1.6-.4v.1h0v.1h0v.2c.1.3.1.7-.2 1.1-.1.1-.1.2-.2.2l-.4.4c-.4.4-.7.9-.3 1.7l.1.2 4 4.1h0c.1 0 .2-.1 0-.3-.2-.3-.2-.6 0-.8v-.1l.1.1h0l.2.1h0l.2.1s.1 0 .1.1l.2.1c.7.3 1.7.6 3.2.4 2.7-.3 3.8-2.2 3.4-2.6l.2.1h0l-.2.2-.1.1-.2.2c-.5.3-1.1.7-1.7.7-1.1 0-1.7-1.1-1.5-1.8v-.1l.1.1h0l.1.1c.2.2.7.5 1.3.5.9 0 1.9-1.1 1.7-1.7 0-.1-.1-.1-.3 0L25 10h0l-1 .3h0l-.4.1c-.1 0-.1 0-.2.1l-.4.1c-.7.2-1.7.3-2.7.3-3.2 0-3.7-3.2-1.4-4.5l-.1.1h0l-.1.2h0v.1h0V7h0v.2h0v.2h0v.2c-.2 1.1.1 2.5 2.7 2.5.5 0 1 0 1.4-.1l.4-.1c.1 0 .3 0 .4-.1l.4-.1h0l.3-.1h0l.3-.1h0l.2-.1h0l.2-.1h0l.3-.1h0v-.1h0V9c-.1-.3-.5-1-1.4-1s-1.3.7-1.5 1l-.1.1h0v.1h0l-.1-.1h0l-.2.2c-.3-.2-.8-.8-.6-1.5 0-.1.1-.1.2-.1h.2 0 .2c.3-.1.6-.2.6-.6 0-.2-.1-.3-.2-.3h-.1 0c-.1 0-.2.1-.3.2l-.1.2c-.1.1-.1.2-.3.2-.4 0-.4-1.2.4-1.2h.1c.2 0 .5 0 .6-.2v-.1c0-.3.7-.6 2.2-.7h.5.8c1.1 0 1.8.2 2.2.3l.2.1h0l.1.1h0l.1.1h0l.1.1h0 0 0v-.1c.1-.4.4-.9 1.1-.9zm-10.6 23h1.3 0 .9 0 .6 0 .4 0 .3 0 .2 0 .1 0 .1 0 0 0c.1 0 .1.1.1.2v.1a.37.37 0 0 0 .3.4c.4.1 1.6 1.1 1.6 1.6a.76.76 0 0 1-.2.4l-.3.4c-.1.2-.2.4 0 .8.5.7.9.7 1.2.7h0-.1-.1l-.1.1c-.3.1-.9.2-1.8.2h-.2c-.4 0-.8-.1-1.2-.2l-1.1-.2c-.6-.1-1.1-.2-1.7-.1h-.1 0-.2c-1.1.2-1.8 1.2-1.3 4.4v.3h0 0c0 .1.2.2.6.2.6 0 2.1.7 3 2.2l-.4-.2h0V39h0l-.3-.1h0l-.3-.1c-.8-.4-1.6-.7-1.9-.2-.2.4-.1.7.2.9.1 0-.1.1-.4.2l-.3.1h0l-.5.2h0-.5 0l-1 .3h0l-1.8.5c-.3.1-.4.3.2.7l.1.1h0l.3.2h0l.3.2h0l.1.1c.1.1.2.2.1.2h-.3c-.3 0-.6 0-.6.2s-.1.7-.6.7-.8-.3-.8-.7v-.3h0V42c0-.4-.2-.7-.6-.7-.6 0-1 .6-1 1.7 0 .8-.8 1-1.1 1s-.6-.1-.6-.6c0-.1-.2-.1-.4-.1h-.2 0c-.1 0 0-.1.2-.3l.2-.1h0l.3-.2h0l.3-.2h0l.6-.5h0c.2-.1.2-.5.1-.6l-.1-.1c-.2-.1-.4-.2-.8.1-.4.4-.9.7-1.3.7s-.8-.4-.8-.8v-.1h0v-.4c0-.2 0-.5-.3-.6l-.1-.1c-.1-.1-.1-.1.1-.1H8h0 .7 0 .8 0 .3 0 .3c.4 0 .8-.1.8-.2 0-.5-.5-.6-.7-.6h-.3c-.5 0-1.2 0-1.2-.7 0-.2.1-.3.2-.4H9c0-.1.1-.1.1-.2 0-.2-.3-.2-.4-.2h0 0l.1-.1h0l.1-.1c.3-.1.9-.3 1.5.2l.4.4.2.3h0l.2.3c.3.4.6.7 1.1.7h.2c1-.1 3.4-1 3.4-3.7 0-.8-.2-1.5-.4-2.1l-.1-.3h0l-.1-.3h0l-.3-.6v-.1c0-.1 0-.1.1-.1h.2c.2 0 .5-.1.5-.5 0-.8-4.8-.9-6.3.6v-.1h0v-.1h0V32v-.1l.1-.2c.3-.5 1-1.2 2.6-1.2.4 0 .7.1.9.1l.3.1a1.1 1.1 0 0 0 .8 0c.1 0 .1-.1 0-.2l-.4-.5c-.3-.3-.6-.6-.5-1.2l.1.1c.3.3 1 .9 1.8.9.1 0 .1 0 .2-.1l.1-.1h0l.2-.3h0l.2-.2h0l.2-.2c.6-.4 1.6-1 3.3-1zm4.9-6c-.2 0-.4.1-.4.3v.1h0v.1h0v.1s0 .1-.1.1l-.1.2h0l-.1.2a3.71 3.71 0 0 1-1.6 1.3c-.1.1-.2.3-.1.5.1.1.2.2.4.2h0 .1c1.3-.6 1.9-1.4 2.1-2l.1-.2v-.1-.1h0v-.2h0v-.1h0c0-.2-.1-.4-.3-.4zm2.8-.2h0c-.2 0-.3.1-.4.3v.2h0v.1h0v.1c-.1.5-.4 1.4-1.5 2-.1.1-.2.3-.1.5.1.1.2.2.4.2h0 .1c1.2-.6 1.7-1.6 1.9-2.3v-.2-.1-.2h0v-.1h0v-.1c-.1-.3-.2-.4-.4-.4zm-4.5-4.6c-.1.2 0 .4.1.6l.1.1c.1.1.4.4.5.8.2.7 0 1.7-.6 2.7-.1.1-.1.4.1.5.1.1.1.1.2.1a.76.76 0 0 0 .4-.2c.7-1.2 1-2.3.8-3.2v-.2c-.1-.6-.5-.9-.7-1.1l-.1-.1h0l-.3-.1h0c-.2-.1-.5-.1-.5.1zm-1.9.3l-.2.1h0l-.1.1h0l-.1.1h0l-.2.2c-.5.5-1 1.4-1.2 2.9 0 .2.1.4.3.4h.1.1c.1 0 .3-.1.4-.3v-.1c.1-1.4.7-2.2 1.1-2.6l.1-.1.1-.1h0 0c.2-.1.2-.4.1-.5s-.3-.1-.5-.1zm4.7-2.6c-.1.2-.1.4.1.5l.1.1h0l.1.1h0l.1.1v.1l.1.1c.3.5.6 1.3.3 2.8l-.1.3c-.1.2 0 .3.2.4h.1.1c.1 0 .3-.1.4-.3.5-2.2-.2-3.4-.6-3.9l-.1-.1h0l-.1-.1h0l-.1-.2h0l-.1-.1h0c-.2 0-.4 0-.5.2zm15.9-8.2h0 0 0l.2.4h0l.1.2c.3.6.9 1.3 1.5 1.2.2 0 .2-.3.1-.6l-.1-.4h0l-.1-.2h0V7v-.2l.2.2h0l.2.2h0l.2.2c.3.3.6.6.9.8.6.4.7 1.6.4 2.3-.3.5-.8 1-.9 1.5v.1c-.1.3-.3.7-.6 1.3l-.2.4c-.2.3-.3.5-.6.8l-.4.4c-.3.4-.7.8-1.1 1.2l-.2.2-1-.9.3-.3h0l.3-.3h0l.3-.3.1-.1.3-.3h0l.3-.3c.7-.8 1.3-1.6 1.2-2.2h-.1 0l-.1-.1h-.1l-.2-.1c-.4-.3-1-.9-.9-1.8l.1.2.1.1.1.2c.3.4.8.8 1.1.5.5-.3.1-1.1-.5-1.7l-.2-.2h0v-.3l-.1-.1c-.4-.4-.6-1-.6-1.4v-.2h0v-.2h0zM27.1 9.9c-.1.2 0 .4.2.5 1.1.4 2.1 1 2.2 1.3h-.1-.1-.1-.1-.2-.1-.3 0-.5a.76.76 0 0 0-.4.2c-.1.1 0 .2 0 .4l.1.2h0l.1.1h0v.1.1.2.1.2.1.3c0 .4 0 .9-.1 1.4 0 .2.1.3.4.4h.1.1c.1 0 .3-.2.3-.4v-.5-.5-.2-.4c0-.5-.1-.8-.2-1.1.6 0 1.1-.1 1.4-.4.1-.1.2-.3.2-.5 0-.7-1-1.3-1.8-1.7l-.3-.1h0l-.3-.1h0l-.2-.1h-.1c.1.1-.1.2-.2.4zM26.2 6h-1.8c-.3 0-.3.1-.4.2h0 0c0 .2.1.3.1.4l.1.1h1 .1c.1 0 .3 0 .3.1s-.3.2-.6.3h-.2 0-.3 0l.1.1c.1.2.3.3.7.3.6 0 .8-.5.8-.9v-.1h0v-.1h0 0c.1 0 .4 0 .4-.2.1-.1-.1-.2-.3-.2h0zM25.8.5h0l.3.1h0l.2.2.1.1.3.1c.4.3.8.7.8 1.1 0 .5-.5.7-.8.8h-.1 0 0 0c.2.5.6.7.8.8h.1.8c.6 0 .6-.5.6-.7v-.2h-.1c-.2 0-.6-.2-.6-.6 0-.5.7-.9 1.4-1.1l.2-.1h0l.2-.1h0l.3-.1-.2.8H30c-.2 0-.4.2-.4.5 0 .1.1.2.2.3h.1l-.6 2h-6.6l-.5-1.9c.1-.1.3-.2.3-.4 0-.3-.2-.5-.4-.5H22l-.3-.9c.6.1 2.1.7 2.1 1.4 0 .5-.4.7-.6.7h-.1 0c0 .6.4.8.6.8h.1 0 .1.9c.5 0 .6-.6.6-.8v-.1h0-.1 0-.2c-.3-.1-.6-.2-.6-.5 0-.5.4-.9.8-1.3l.2-.2h0l.2-.2h0 .1 0zm.2 1.2a.47.47 0 0 0-.5.5.47.47 0 0 0 .5.5.47.47 0 0 0 .5-.5.47.47 0 0 0-.5-.5z"/></svg>